<svg xmlns="http://www.w3.org/2000/svg" viewBox="0 0 920 680" width="920" height="680">
<rect width="100%" height="100%" fill="#fbfbfb" />
<text x="20" y="26" font-family="Segoe UI, Arial, sans-serif" font-size="16" fill="#202428">Prepared Robot Waypoints</text>
<g transform="translate(0,34)">
<polyline points="28.0,610.1 37.6,619.8 48.3,628.5 59.6,635.8 70.5,641.2 77.8,644.2 90.2,648.1 102.9,650.7 112.6,651.7 122.8,652.0 136.1,651.1 149.8,648.7 163.3,644.6 175.5,639.4 185.2,634.1 196.2,626.6 206.4,618.0 215.9,607.9 224.1,596.9 230.9,585.4 235.9,574.6 240.3,561.8 243.3,548.4 244.8,535.2 244.9,461.2 404.4,369.1 563.8,277.0 723.3,185.0 882.8,92.9 892.0,86.8" fill="none" stroke="#d62728" stroke-width="1.4" stroke-opacity="0.9" stroke-linecap="round" stroke-linejoin="round" />
<circle cx="-4488.1" cy="98.7" r="5" fill="#111" />
<text x="20" y="620" font-family="Segoe UI, Arial, sans-serif" font-size="12" fill="#555">red: print, gray: travel, black dot: robot base, top view in base XY</text>
</g>
</svg>
